HIERARCHY
ROOT Hips
{
  OFFSET 5.80788e-005 67.184 3.4734
  CHANNELS 6 Xposition Yposition Zposition Zrotation Xrotation Yrotation
  JOINT Chest
  {
    OFFSET 0 8.7983 -4.7612
    CHANNELS 3 Zrotation Xrotation Yrotation
    JOINT Chest2
    {
      OFFSET 0 8.0291 0.4195
      CHANNELS 3 Zrotation Xrotation Yrotation
      JOINT Chest3
      {
        OFFSET 0 9.9351 -2.2114
        CHANNELS 3 Zrotation Xrotation Yrotation
        JOINT Neck
        {
          OFFSET 0 22.3885 -0.4656
          CHANNELS 3 Zrotation Xrotation Yrotation
          JOINT Head
          {
            OFFSET -0.0001 12.643 3.4389
            CHANNELS 3 Zrotation Xrotation Yrotation
            End Site
            {
              OFFSET 0.0001 17.6655 0.5274
            }
          }
        }
        JOINT LeftCollar
        {
          OFFSET 2.2603 21.606 7.4023
          CHANNELS 3 Zrotation Xrotation Yrotation
          JOINT LeftShoulder
          {
            OFFSET 13.5163 -1.1332 -5.0146
            CHANNELS 3 Zrotation Xrotation Yrotation
            JOINT LeftElbow
            {
              OFFSET -0.0995 -28.05 -0.2431
              CHANNELS 3 Zrotation Xrotation Yrotation
              JOINT LeftWrist
              {
                OFFSET 0.0679 -23.3996 -0.1402
                CHANNELS 3 Zrotation Xrotation Yrotation
                JOINT LeftFinger1
                {
                  OFFSET 0.7932 -9.069 2.5189
                  CHANNELS 3 Zrotation Xrotation Yrotation
                  JOINT LeftFinger11
                  {
                    OFFSET -0.8272 -3.3923 0.5977
                    CHANNELS 3 Zrotation Xrotation Yrotation
                    JOINT LeftFinger12
                    {
                      OFFSET -0.5649 -2.3158 0.4082
                      CHANNELS 3 Zrotation Xrotation Yrotation
                      End Site
                      {
                        OFFSET -0.4919 -1.6479 0.2673
                      }
                    }
                  }
                }
                JOINT LeftFinger2
                {
                  OFFSET 0.9159 -9.2044 0.2193
                  CHANNELS 3 Zrotation Xrotation Yrotation
                  JOINT LeftFinger21
                  {
                    OFFSET 0.0117 -4.1944 -0.0248
                    CHANNELS 3 Zrotation Xrotation Yrotation
                    JOINT LeftFinger22
                    {
                      OFFSET 0.0071 -2.3249 -0.0142
                      CHANNELS 3 Zrotation Xrotation Yrotation
                      End Site
                      {
                        OFFSET -0.1475 -2.0882 0.0028
                      }
                    }
                  }
                }
                JOINT LeftFinger3
                {
                  OFFSET 0.6113 -8.7231 -2.0637
                  CHANNELS 3 Zrotation Xrotation Yrotation
                  JOINT LeftFinger31
                  {
                    OFFSET -0.1927 -3.8059 -0.2383
                    CHANNELS 3 Zrotation Xrotation Yrotation
                    JOINT LeftFinger32
                    {
                      OFFSET -0.1091 -2.1688 -0.1362
                      CHANNELS 3 Zrotation Xrotation Yrotation
                      End Site
                      {
                        OFFSET -0.2358 -1.9176 -0.0906
                      }
                    }
                  }
                }
                JOINT LeftFinger4
                {
                  OFFSET -0.6151 -8.0947 -3.5641
                  CHANNELS 3 Zrotation Xrotation Yrotation
                  JOINT LeftFinger41
                  {
                    OFFSET -0.4882 -2.341 -0.6462
                    CHANNELS 3 Zrotation Xrotation Yrotation
                    JOINT LeftFinger42
                    {
                      OFFSET -0.3575 -1.7167 -0.4742
                      CHANNELS 3 Zrotation Xrotation Yrotation
                      End Site
                      {
                        OFFSET -0.4187 -1.5237 -0.3496
                      }
                    }
                  }
                }
                JOINT LeftFinger0
                {
                  OFFSET -1.42 -1.8761 1.4223
                  CHANNELS 3 Zrotation Xrotation Yrotation
                  JOINT LeftFinger01
                  {
                    OFFSET -1.1471 -3.4929 2.6334
                    CHANNELS 3 Zrotation Xrotation Yrotation
                    JOINT LeftFinger02
                    {
                      OFFSET -0.823 -2.3 1.6571
                      CHANNELS 3 Zrotation Xrotation Yrotation
                      End Site
                      {
                        OFFSET -0.5822 -1.6914 1.1582
                      }
                    }
                  }
                }
              }
            }
          }
        }
        JOINT RightCollar
        {
          OFFSET -2.2603 21.606 7.4023
          CHANNELS 3 Zrotation Xrotation Yrotation
          JOINT RightShoulder
          {
            OFFSET -13.5187 -1.1334 -5.0155
            CHANNELS 3 Zrotation Xrotation Yrotation
            JOINT RightElbow
            {
              OFFSET 0.0994 -28.0499 -0.2431
              CHANNELS 3 Zrotation Xrotation Yrotation
              JOINT RightWrist
              {
                OFFSET -0.0679 -23.3996 -0.1402
                CHANNELS 3 Zrotation Xrotation Yrotation
                JOINT RightFinger1
                {
                  OFFSET -0.7932 -9.0691 2.5189
                  CHANNELS 3 Zrotation Xrotation Yrotation
                  JOINT RightFinger11
                  {
                    OFFSET 0.8272 -3.3923 0.5977
                    CHANNELS 3 Zrotation Xrotation Yrotation
                    JOINT RightFinger12
                    {
                      OFFSET 0.565 -2.3158 0.4082
                      CHANNELS 3 Zrotation Xrotation Yrotation
                      End Site
                      {
                        OFFSET 0.4919 -1.6479 0.2673
                      }
                    }
                  }
                }
                JOINT RightFinger2
                {
                  OFFSET -0.916 -9.2044 0.2193
                  CHANNELS 3 Zrotation Xrotation Yrotation
                  JOINT RightFinger21
                  {
                    OFFSET -0.0117 -4.1944 -0.0248
                    CHANNELS 3 Zrotation Xrotation Yrotation
                    JOINT RightFinger22
                    {
                      OFFSET -0.0071 -2.3249 -0.0142
                      CHANNELS 3 Zrotation Xrotation Yrotation
                      End Site
                      {
                        OFFSET 0.1475 -2.0882 0.0028
                      }
                    }
                  }
                }
                JOINT RightFinger3
                {
                  OFFSET -0.6113 -8.7231 -2.0637
                  CHANNELS 3 Zrotation Xrotation Yrotation
                  JOINT RightFinger31
                  {
                    OFFSET 0.1927 -3.8059 -0.2383
                    CHANNELS 3 Zrotation Xrotation Yrotation
                    JOINT RightFinger32
                    {
                      OFFSET 0.1091 -2.1688 -0.1362
                      CHANNELS 3 Zrotation Xrotation Yrotation
                      End Site
                      {
                        OFFSET 0.2358 -1.9176 -0.0906
                      }
                    }
                  }
                }
                JOINT RightFinger4
                {
                  OFFSET 0.6151 -8.0947 -3.564
                  CHANNELS 3 Zrotation Xrotation Yrotation
                  JOINT RightFinger41
                  {
                    OFFSET 0.4882 -2.341 -0.6462
                    CHANNELS 3 Zrotation Xrotation Yrotation
                    JOINT RightFinger42
                    {
                      OFFSET 0.3574 -1.7166 -0.4742
                      CHANNELS 3 Zrotation Xrotation Yrotation
                      End Site
                      {
                        OFFSET 0.4187 -1.5237 -0.3496
                      }
                    }
                  }
                }
                JOINT RightFinger0
                {
                  OFFSET 1.4199 -1.8761 1.4221
                  CHANNELS 3 Zrotation Xrotation Yrotation
                  JOINT RightFinger01
                  {
                    OFFSET 1.1472 -3.4929 2.6336
                    CHANNELS 3 Zrotation Xrotation Yrotation
                    JOINT RightFinger02
                    {
                      OFFSET 0.8229 -2.3 1.6571
                      CHANNELS 3 Zrotation Xrotation Yrotation
                      End Site
                      {
                        OFFSET 0.5822 -1.6914 1.1582
                      }
                    }
                  }
                }
              }
            }
          }
        }
      }
    }
  }
  JOINT RightHip
  {
    OFFSET -9.412 3.9771 -0.7758
    CHANNELS 3 Zrotation Xrotation Yrotation
    JOINT RightKnee
    {
      OFFSET -0.7531 -40.938 0
      CHANNELS 3 Zrotation Xrotation Yrotation
      JOINT RightAnkle
      {
        OFFSET 0 -40.1986 0
        CHANNELS 3 Zrotation Xrotation Yrotation
        JOINT RightToe
        {
          OFFSET 0 -4.4182 9.239
          CHANNELS 3 Zrotation Xrotation Yrotation
          End Site
          {
            OFFSET 0 0 6.1981
          }
        }
      }
    }
  }
  JOINT LeftHip
  {
    OFFSET 9.4119 3.9773 -0.7758
    CHANNELS 3 Zrotation Xrotation Yrotation
    JOINT LeftKnee
    {
      OFFSET 0.7532 -40.9383 0
      CHANNELS 3 Zrotation Xrotation Yrotation
      JOINT LeftAnkle
      {
        OFFSET 0 -40.1986 0
        CHANNELS 3 Zrotation Xrotation Yrotation
        JOINT LeftToe
        {
          OFFSET 0 -4.4182 9.239
          CHANNELS 3 Zrotation Xrotation Yrotation
          End Site
          {
            OFFSET 0 0 6.1981
          }
        }
      }
    }
  }
}
MOTION
Frames:	5
Frame Time:	0.0333333
5.80788e-005 67.184 3.4734 0 0 -0 0 0 -0 0 0 -0 0 0 -0 0 0 -0 0 0 -0 0 0 -12.5014 88.1196 14.2451 10.6914 -0.00160068 -0.00239207 0.000740045 -8.4365e-005 7.00714e-005 -9.52055e-007 9.93923e-017 -1.98785e-016 -1.59028e-015 9.93923e-017 -5.96354e-016 -1.59028e-015 -9.93923e-017 -5.96354e-016 -1.59028e-015 9.93923e-017 -1.98785e-016 -1.59028e-015 -0.0128176 0.00232552 8.52707e-005 9.93923e-017 5.96354e-016 -0 9.93923e-017 -1.98785e-016 -1.59028e-015 -0.0160551 0.00299681 0.000857156 -2.48481e-016 0 3.18055e-015 9.93923e-017 -1.98785e-016 -1.59028e-015 -0.0125865 0.0031206 0.00282719 0 1.98785e-016 -0 9.93923e-017 -1.98785e-016 -1.59028e-015 9.93923e-017 -5.96354e-016 -1.59028e-015 -9.93923e-017 -5.96354e-016 -1.59028e-015 -0.865644 0.16582 7.03859 -88.0329 10.2057 -10.5567 0.0015593 -0.00248883 -0.000788628 7.87605e-005 4.10553e-005 1.24965e-005 -3.97569e-016 -7.95139e-016 3.18055e-015 -1.98785e-016 -3.97569e-016 3.18055e-015 -1.98785e-016 0 3.18055e-015 -3.97569e-016 -7.95139e-016 3.18055e-015 0.0129473 0.00231697 -8.70038e-005 9.93923e-017 -7.95139e-016 1.59028e-015 -3.97569e-016 -7.95139e-016 3.18055e-015 0.0163314 0.00303369 -0.000872333 3.97569e-016 7.95139e-016 -3.18055e-015 -3.97569e-016 -7.95139e-016 3.18055e-015 0.0145763 0.00367772 -0.00326275 9.93923e-017 -3.97569e-016 -0 -3.97569e-016 -7.95139e-016 3.18055e-015 -1.98785e-016 -3.97569e-016 3.18055e-015 -1.98785e-016 0 3.18055e-015 3.42485 1.36937 -0.0640303 0.000136572 0.69354 0.00145564 -3.42573 -2.06297 -0.0607933 -3.19502e-024 0 -1.48106e-024 -3.42498 1.36123 0.0639712 -6.769e-005 0.712612 -0.0012277 3.42582 -2.07388 0.0612819 2.55305e-023 0 -2.31416e-026 
-56.0714 20.1915 8.71815 -4.51342e-008 -69.6329 -2.68772e-008 -0.117981 2.48204 -0.0831094 -0.232682 4.96422 -0.161324 -0.232683 4.96424 -0.161325 -7.02631e-007 21.4793 -8.2148e-007 -0.0260388 13.2629 0.0110946 17.3363 0.21595 -8.92896 112.567 13.1437 6.75272 -11.6817 -82.3374 -3.21018 -26.591 -11.6381 29.5823 6.36111e-015 -1.59028e-015 5.96354e-016 -3.18055e-015 -1.98785e-016 1.98785e-016 1.27222e-014 -1.98785e-016 5.96354e-016 6.36111e-015 -1.59028e-015 5.96354e-016 -0.0128542 0.00235199 0.000100547 -9.54166e-015 -9.93923e-016 -1.59028e-015 6.36111e-015 -1.59028e-015 5.96354e-016 -0.0161714 0.00302497 0.000868758 3.18055e-015 -7.95139e-016 -1.78906e-015 6.36111e-015 -1.59028e-015 5.96354e-016 -0.0126458 0.00315086 0.00285433 -1.65521e-032 -5.96354e-016 -1.59028e-015 6.36111e-015 -1.59028e-015 5.96354e-016 -3.18055e-015 -1.98785e-016 1.98785e-016 1.27222e-014 -1.98785e-016 5.96354e-016 -18.1817 0.439671 3.45735 -112.125 9.62062 -8.8986 6.2761 -82.2738 -3.02091 27.4241 -11.1641 -29.068 -3.18055e-015 1.47101e-014 -1.98785e-015 -3.18055e-015 1.27222e-014 -1.59028e-015 3.18055e-015 8.34896e-015 1.59028e-015 -3.18055e-015 1.47101e-014 -1.98785e-015 0.0129629 0.00231199 -8.65978e-005 -6.36111e-015 -2.38542e-015 1.19271e-015 -3.18055e-015 1.47101e-014 -1.98785e-015 0.0162781 0.00303306 -0.000877633 1.59028e-014 1.59028e-015 1.19271e-015 -3.18055e-015 1.47101e-014 -1.98785e-015 0.014474 0.00365545 -0.00324448 -3.18055e-015 1.98785e-015 -7.95139e-016 -3.18055e-015 1.47101e-014 -1.98785e-015 -3.18055e-015 1.27222e-014 -1.59028e-015 3.18055e-015 8.34896e-015 1.59028e-015 -14.7013 -20.3463 -12.684 44.7822 82.2589 -50.0938 0.724237 4.86998 3.39688 -2.18663e-015 -2.38542e-015 -1.59028e-015 14.3561 -28.0925 13.401 165.979 77.1937 -168.022 16.0889 -0.71487 8.41521 4.41391e-032 -7.95139e-016 3.18055e-015 
-81.2447 -0.29277 7.33026 -180 -79.0323 -180 -0.170874 3.57928 -0.130305 -0.334555 7.15892 -0.250624 -0.334556 7.15892 -0.250625 -2.15662e-006 31.145 -3.70451e-006 0.0956757 19.5736 -0.0399069 24.9769 0.410426 -7.42636 123.647 12.0498 5.22249 -98.6702 -56.2336 -90.0606 -38.2589 -16.7435 43.568 6.36111e-015 -1.59028e-015 7.95139e-016 -2.20695e-031 1.59028e-015 7.95139e-015 3.18055e-015 3.18055e-015 7.95139e-016 6.36111e-015 -1.59028e-015 7.95139e-016 -0.0128035 0.00229949 8.00589e-005 -9.63742e-006 1.05518e-005 -2.33624e-006 6.36111e-015 -1.59028e-015 7.95139e-016 -0.0160492 0.00297918 0.000849062 -3.18055e-015 1.59028e-015 2.38542e-015 6.36111e-015 -1.59028e-015 7.95139e-016 -0.0125455 0.00309645 0.00281586 -3.18055e-015 -7.95139e-015 -8.74653e-015 6.36111e-015 -1.59028e-015 7.95139e-016 -2.20695e-031 1.59028e-015 7.95139e-015 3.18055e-015 3.18055e-015 7.95139e-016 -25.8672 0.640416 2.00111 -122.997 8.97528 -8.26944 98.3848 -57.1668 89.7251 39.6381 -16.3618 -42.5625 -9.16423e-007 -2.47249e-006 6.281e-006 4.80693e-006 -7.95219e-008 -3.47535e-006 6.36111e-015 0 -4.77083e-015 -9.16423e-007 -2.47249e-006 6.281e-006 0.0129828 0.00233801 -9.15747e-005 0 0 -1.27222e-014 -9.16423e-007 -2.47249e-006 6.281e-006 0.0163325 0.00302566 -0.000872911 -6.36111e-015 0 -0 -9.16423e-007 -2.47249e-006 6.281e-006 0.0145581 0.00367198 -0.00325484 7.83735e-006 1.34318e-005 -4.26107e-006 -9.16423e-007 -2.47249e-006 6.281e-006 4.80693e-006 -7.95219e-008 -3.47535e-006 6.36111e-015 0 -4.77083e-015 -24.5217 -28.7357 -20.2969 162.687 57.4115 -168.388 2.98722 7.36903 4.36778 -3.27995e-015 -1.59028e-015 1.59028e-015 26.6599 -37.8277 24.2507 172.279 32.093 -171.607 21.8712 -1.13748 13.9321 -7.95139e-016 2.38542e-015 -3.18055e-015 
-75.6564 4.32888 7.842 -180 -85.9956 -180 -0.176215 3.2922 -0.123928 -0.346142 6.58472 -0.238285 -0.346143 6.58474 -0.238286 -2.32116e-006 28.9971 -3.43874e-006 0.367165 18.9319 -0.154123 22.9442 0.585298 -7.99339 121.615 12.4989 5.54755 -102.281 -64.0546 -93.2894 -35.6884 -14.7762 41.0596 3.06622e-006 -5.12891e-006 2.61741e-006 1.53311e-006 5.15244e-007 1.30871e-006 -3.06622e-006 5.34224e-006 -2.61741e-006 3.06622e-006 -5.12891e-006 2.61741e-006 -0.0128119 0.0023207 8.86037e-005 -4.41391e-031 6.36111e-015 3.97569e-015 3.06622e-006 -5.12891e-006 2.61741e-006 -0.0160756 0.00300712 0.000856933 3.18055e-015 4.77083e-015 -0 3.06622e-006 -5.12891e-006 2.61741e-006 -0.012605 0.00313825 0.00283159 3.18055e-015 0 -3.97569e-015 3.06622e-006 -5.12891e-006 2.61741e-006 1.53311e-006 5.15244e-007 1.30871e-006 -3.06622e-006 5.34224e-006 -2.61741e-006 -23.9475 0.770498 2.66997 -120.738 9.13468 -8.40067 100.148 -64.9997 91.0949 37.0289 -14.9402 -39.8112 3.18055e-015 -6.36111e-015 1.59028e-015 0 0 -3.18055e-015 -3.18055e-015 0 -3.18055e-015 3.18055e-015 -6.36111e-015 1.59028e-015 0.0129751 0.00233103 -9.11636e-005 3.18055e-015 1.59028e-015 6.36111e-015 3.18055e-015 -6.36111e-015 1.59028e-015 0.0163022 0.00302426 -0.000872926 0 6.36111e-015 -0 3.18055e-015 -6.36111e-015 1.59028e-015 0.0145882 0.00370176 -0.00326745 6.36111e-015 -3.18055e-015 1.59028e-015 3.18055e-015 -6.36111e-015 1.59028e-015 0 0 -3.18055e-015 -3.18055e-015 0 -3.18055e-015 -21.666 -27.2164 -17.6688 158.89 65.3832 -164.565 3.10628 7.02085 3.81187 -3.23386e-006 5.53644e-007 -1.49814e-006 23.0167 -36.2993 20.7199 171.742 42.178 -172.221 19.979 -0.656093 12.629 -8.40397e-007 -1.06369e-007 -4.06975e-008 
-75.6566 4.32876 7.84198 -180 -85.9956 -180 -0.18989 3.25676 -0.127489 -0.373414 6.51391 -0.24474 -0.373415 6.51391 -0.24474 1.00177e-008 28.997 1.6753e-007 0.61476 19.5542 -0.260962 22.6701 0.764753 -8.18312 121.956 12.6369 5.55213 -104.194 -63.9978 -95.0238 -35.6937 -14.1082 41.5695 3.20087e-007 6.81142e-006 4.40118e-006 8.40121e-006 9.16856e-006 1.86798e-006 4.41391e-032 -3.18055e-015 7.95139e-016 3.20087e-007 6.81142e-006 4.40118e-006 -0.0128472 0.002335 8.67331e-005 -3.18055e-015 3.18055e-015 7.95139e-016 3.20087e-007 6.81142e-006 4.40118e-006 -0.0160213 0.00300588 0.00085576 9.54166e-015 -3.18055e-015 -7.95139e-016 3.20087e-007 6.81142e-006 4.40118e-006 -0.0125856 0.00311853 0.00282359 -9.44779e-006 3.03749e-005 8.44081e-006 3.20087e-007 6.81142e-006 4.40118e-006 8.40121e-006 9.16856e-006 1.86798e-006 4.41391e-032 -3.18055e-015 7.95139e-016 -23.7741 0.914316 2.95195 -120.851 9.12408 -8.40422 100.137 -65 91.0892 37.1006 -14.7397 -40.0292 -6.36111e-015 -4.77083e-015 4.77083e-015 6.36111e-015 -6.36111e-015 -1.59028e-015 5.29669e-031 -9.54166e-015 3.18055e-015 -6.36111e-015 -4.77083e-015 4.77083e-015 0.0129795 0.00233063 -8.02368e-005 -6.36111e-015 1.59028e-015 1.59028e-015 -6.36111e-015 -4.77083e-015 4.77083e-015 0.0163446 0.00304024 -0.000874601 3.18055e-015 6.36111e-015 -3.18055e-015 -6.36111e-015 -4.77083e-015 4.77083e-015 0.0145972 0.00367832 -0.00325608 -3.18055e-015 7.95139e-015 -6.36111e-015 -6.36111e-015 -4.77083e-015 4.77083e-015 6.36111e-015 -6.36111e-015 -1.59028e-015 5.29669e-031 -9.54166e-015 3.18055e-015 -21.1463 -27.4276 -17.1038 158.891 65.3816 -164.567 3.66477 7.07284 3.46634 -9.14409e-015 8.44608e-007 -1.59028e-015 22.5664 -36.33 20.3681 171.741 42.1791 -172.212 19.6223 -0.662831 12.8109 -1.59028e-015 -7.95139e-016 -0 
